<svg xmlns="http://www.w3.org/2000/svg" width="800" height="800" style="shape-rendering:geometricPrecision;text-rendering:geometricPrecision;image-rendering:optimizeQuality;fill-rule:evenodd;clip-rule:evenodd"><path style="opacity:1" fill="#76c66a" d="M55.5-.5h251c-4.457 3.736-9.457 6.736-15 9a4.932 4.932 0 0 0-3 .5 201.7 201.7 0 0 1-11 11c1.165 2.715.498 5.049-2 7l1 1a137.756 137.756 0 0 0-3 14 4.932 4.932 0 0 1 1 2.5c-.354 4.24-1.354 8.24-3 12 1.522 1.656 1.189 2.823-1 3.5 1.625.852 1.958 1.852 1 3a19.897 19.897 0 0 0 4 3.5 3.647 3.647 0 0 1-1 1.5c2.86 3.912 5.193 7.746 7 11.5-.603 1.135-.936 2.135-1 3a6.802 6.802 0 0 1-1.5-3c-2.513 3.296-1.846 5.63 2 7 1.313-1.892 2.813-2.226 4.5-1a330.58 330.58 0 0 0 21.5 36c3.76 4.443 3.26 8.276-1.5 11.5a524.844 524.844 0 0 1-24 13.5 9.201 9.201 0 0 1-4.5-2l-9-18c-.708-.881-1.542-1.547-2.5-2-9.843-20.01-24.843-34.843-45-44.5-3.922-.474-7.588-1.641-11-3.5-6.821-1.155-13.821-1.321-21-.5-2.223.566-4.223 1.4-6 2.5-13.718 5.898-22.218 16.232-25.5 31-2.038 13.362-.038 26.029 6 38 11.278 21.376 26.445 39.542 45.5 54.5 2.458 1.787 4.124 4.121 5 7-29.045 38.435-47.212 81.602-54.5 129.5a1351.5 1351.5 0 0 0-.5 52 258.703 258.703 0 0 0 3 34.5c-.535 1.872-.535 3.538 0 5l-2 3c4.511.68 7.177 3.18 8 7.5 9.798 35.613 27.798 66.28 54 92-9.059 11.904-17.059 24.737-24 38.5a18.473 18.473 0 0 1 2 3.5 580.527 580.527 0 0 0-49-27 764.036 764.036 0 0 1-15.5-9 290.769 290.769 0 0 0-10-35 89.549 89.549 0 0 0-11.5-16.5c-8.081-5.132-14.414-3.466-19 5-.91 1.789-1.076 3.623-.5 5.5l6.5 13c-.671 1.347-.671 2.514 0 3.5l-4 1 2 1c-1.333.667-1.333 1.333 0 2-4.987 1.851-8.82.351-11.5-4.5l-1 2c-.97-.698-2.137-.698-3.5 0-1.925-.09-3.092-1.09-3.5-3-1.935 2.259-4.435 3.259-7.5 3-6.383-1.024-11.883.643-16.5 5-2.587 6.907-.753 12.407 5.5 16.5a96.435 96.435 0 0 0 21 5c1.711 1.133 2.211 2.633 1.5 4.5-4.692 2.026-8.026 5.359-10 10-.289 10.7 4.878 14.866 15.5 12.5a228.75 228.75 0 0 0 19-7c3.268-1.213 6.601-1.546 10-1 24.869 11.254 48.202 24.754 70 40.5-2.403-.107-4.236.893-5.5 3-14.446 34.503-25.446 69.836-33 106a10173.655 10173.655 0 0 1-12.5 62 10.515 10.515 0 0 1-3-2.5c-4.411 1.499-8.078.499-11-3 4.242-9.84 5.076-20.007 2.5-30.5-1.277-2.247-2.777-4.247-4.5-6-1-1.667-2.333-3-4-4-16.84-14.775-32.006-13.109-45.5 5-6.08 12.726-5.914 25.392.5 38a4.94 4.94 0 0 1-1 2.5c-9.399-.129-15.899-4.629-19.5-13.5-7.083-8.788-14.417-9.121-22-1-.658 4.072-.325 8.072 1 12 3.969 6.791 8.802 12.791 14.5 18 .91 3.45 3.244 5.283 7 5.5-.752.671-1.086 1.504-1 2.5a78.963 78.963 0 0 0-6.5-3 2.427 2.427 0 0 0-.5 2c-1.096-1.603-2.43-3.103-4-4.5-17.192-9.585-29.358-24.085-36.5-43.5a14.696 14.696 0 0 0-3.5-3v-688c1.294-.79 2.46-1.79 3.5-3C11.5 28 28 11.5 52.5 3a14.691 14.691 0 0 0 3-3.5z"/><path style="opacity:1" fill="#76c66b" d="M329.5-.5h414c.79 1.294 1.79 2.46 3 3.5 9.942 3.634 18.942 8.8 27 15.5 10.218 9.41 17.718 20.743 22.5 34a14.694 14.694 0 0 0 3.5 3v27c-.722.418-1.222 1.084-1.5 2-.846-2.347-2.346-4.18-4.5-5.5 4.302-4.659 3.635-8.492-2-11.5l-9 5.5-63 1a34.468 34.468 0 0 0-1 6l3 3a4.451 4.451 0 0 1-2 1.5 114.948 114.948 0 0 1-6.5-3c.015 4.06 1.848 7.226 5.5 9.5-.758 1.364-.258 2.53 1.5 3.5l1-2c.318 1.56 1.151 2.728 2.5 3.5l-1 1c1.632 1.31 3.299 1.81 5 1.5-1.071 1.825-.404 2.992 2 3.5-.753 1.487-1.586 1.654-2.5.5a4.934 4.934 0 0 0-.5 3c-3.198-.02-6.031-.353-8.5-1a9.454 9.454 0 0 1-2.5 1.5c2.476 2.571 5.476 4.071 9 4.5a4.934 4.934 0 0 1-.5 3c-.654-1.196-1.154-1.196-1.5 0 2.382 1.571 5.049 2.404 8 2.5a18.453 18.453 0 0 1-6 .5c.149 5.391-1.351 6.058-4.5 2-.269 2.627-.436 4.96-.5 7-13.208-33.543-36.542-57.21-70-71-2.866-4.85-7.032-6.85-12.5-6a31.698 31.698 0 0 1-6-5c-2.061.827-4.395 1.16-7 1a364.357 364.357 0 0 0-11.5-3c-1.669 1.39-3.336 1.723-5 1-6.599 3.525-13.599 4.691-21 3.5a13.923 13.923 0 0 1-3-4c-1.325.148-2.492-.018-3.5-.5-3.318 5.981-8.151 7.481-14.5 4.5 1.823-6.817.657-7.317-3.5-1.5-.718-.95-1.551-1.117-2.5-.5a25.974 25.974 0 0 1 5 5c-3.599 4.963-8.099 5.797-13.5 2.5a6.802 6.802 0 0 1-1.5 3c-1.196-.346-1.196-.846 0-1.5-8.879.785-17.879 2.452-27 5l2 1a248.404 248.404 0 0 0-17.5 3.5c-5.116-.545-10.283-.045-15.5 1.5 1.098.77 1.098 1.603 0 2.5a68.024 68.024 0 0 0-7 2c-33.396 6.138-65.896 15.138-97.5 27-1.982-.49-3.649-1.49-5-3 .723-16.887-1.943-33.22-8-49-1.344-3.365-3.177-6.365-5.5-9-2.222-5.764-5.888-10.43-11-14-6.471-7.735-14.471-13.235-24-16.5a25.154 25.154 0 0 1-4-4.5z"/><path style="opacity:1" fill="#e591c0" d="M306.5-.5h23a25.154 25.154 0 0 0 4 4.5c9.529 3.265 17.529 8.765 24 16.5-3.94.782-8.773.782-14.5 0l-5.5-5.5c.933-1.608.267-2.441-2-2.5-3.179.684-5.679 2.351-7.5 5-2.276-1.807-2.443-3.307-.5-4.5-1.249-1.824-2.415-1.657-3.5.5l-1.5-1.5c2.306-1.793 2.639-3.96 1-6.5-3.889-2.082-7.889-2.415-12-1a4.934 4.934 0 0 0 .5 3c1.183-1.231 2.349-1.231 3.5 0a9.42 9.42 0 0 0-3 3c-2.076.6-4.076.933-6 1a4.458 4.458 0 0 1-1.5-2c-5.274 1.817-10.108 4.317-14.5 7.5-.98 1.462-.98 3.295 0 5.5.842 2.51 2.342 3.177 4.5 2 .483.948.649 1.948.5 3h3c-3.92 8.48-5.086 17.48-3.5 27a106.869 106.869 0 0 0 5.5 21c-1.431.38-2.264 1.38-2.5 3-1.049-1.017-2.216-1.184-3.5-.5a134.575 134.575 0 0 0 5 15l-1 1c2.46.396 4.46 1.563 6 3.5 1.505-2.63 2.171-2.297 2 1-3.098-.088-3.432.412-1 1.5-1.894 1.101-2.561 2.434-2 4l2 1c-2.024 3.984-1.024 6.65 3 8-.535 2.109-1.535 2.609-3 1.5-.886.825-1.219 1.825-1 3a17.65 17.65 0 0 1 6-.5c1.134 1.016.801 1.683-1 2a8.905 8.905 0 0 1 4 3l5 1a3.647 3.647 0 0 0-1 1.5 26.023 26.023 0 0 1 4 4.5l-1 1a36.167 36.167 0 0 1 8 2.5c.369 3.114.369 6.114 0 9 1.189.929 2.522 1.262 4 1-.111.617-.444 1.117-1 1.5l-15 1a313.366 313.366 0 0 1-20 12.5c.71-3.76-.456-7.093-3.5-10-3.387 2.787-6.887 4.454-10.5 5-4.002.59-7.336-.91-10-4.5a34.474 34.474 0 0 1 1-6 11.38 11.38 0 0 0-2-2.5c-.731 3.672-2.231 4.339-4.5 2l-1 1-1.5-3a42.275 42.275 0 0 1 4-6.5c-1.934-2.502-2.934-5.336-3-8.5.958.453 1.792 1.119 2.5 2l9 18a9.201 9.201 0 0 0 4.5 2 524.844 524.844 0 0 0 24-13.5c4.76-3.224 5.26-7.057 1.5-11.5a330.58 330.58 0 0 1-21.5-36 1036.63 1036.63 0 0 1-7.5-24 31.284 31.284 0 0 1-1.5-10 79.98 79.98 0 0 1 2-22 25.644 25.644 0 0 1 3.5-10c3.002-3.834 6.169-7.5 9.5-11 5.543-2.264 10.543-5.264 15-9z"/><path style="opacity:.004" d="M773.5 17.5c1.333.667 1.333.667 0 0z"/><path style="opacity:1" fill="#fcb1dd" d="M300.5 75.5a106.869 106.869 0 0 1-5.5-21c-1.586-9.52-.42-18.52 3.5-27 6.548-7.563 14.882-10.063 25-7.5 15.322 5.32 26.155 15.487 32.5 30.5 5.941 17.324 7.108 34.99 3.5 53-2 1.333-3.667 3-5 5a1021.582 1021.582 0 0 0-27.5 12 21.365 21.365 0 0 1-6-5 271.029 271.029 0 0 0-11-19 148.283 148.283 0 0 1-9.5-21z"/><path style="opacity:1" fill="#7ec271" d="M649.5 54.5a112.425 112.425 0 0 0-22-5c-.763-.768-1.763-1.268-3-1.5-14.433-1.71-28.433-.043-42 5a781.04 781.04 0 0 0-91 13.5c1.098-.897 1.098-1.73 0-2.5 5.217-1.545 10.384-2.045 15.5-1.5a248.404 248.404 0 0 1 17.5-3.5l-2-1c9.121-2.548 18.121-4.215 27-5-1.196.654-1.196 1.154 0 1.5a6.802 6.802 0 0 0 1.5-3c5.401 3.297 9.901 2.463 13.5-2.5a25.974 25.974 0 0 0-5-5c.949-.617 1.782-.45 2.5.5 4.157-5.817 5.323-5.317 3.5 1.5 6.349 2.981 11.182 1.481 14.5-4.5 1.008.482 2.175.648 3.5.5a13.923 13.923 0 0 0 3 4c7.401 1.191 14.401.025 21-3.5 1.664.723 3.331.39 5-1 3.843.936 7.676 1.936 11.5 3 2.605.16 4.939-.173 7-1a31.698 31.698 0 0 0 6 5c5.468-.85 9.634 1.15 12.5 6z"/><path style="opacity:1" fill="#a6b095" d="M278.5 29.5a79.98 79.98 0 0 0-2 22c-1.151-5.15-1.317-10.484-.5-16 .566-2.223 1.4-4.223 2.5-6z"/><path style="opacity:1" fill="#7ec171" d="M291.5 8.5a150.711 150.711 0 0 0-9.5 11 25.644 25.644 0 0 0-3.5 10c-1.1 1.777-1.934 3.777-2.5 6-.817 5.516-.651 10.85.5 16a31.284 31.284 0 0 0 1.5 10 1036.63 1036.63 0 0 0 7.5 24c-1.687-1.226-3.187-.892-4.5 1-3.846-1.37-4.513-3.704-2-7a6.802 6.802 0 0 0 1.5 3c.064-.865.397-1.865 1-3-1.807-3.754-4.14-7.588-7-11.5a3.647 3.647 0 0 0 1-1.5 19.897 19.897 0 0 1-4-3.5c.958-1.148.625-2.148-1-3 2.189-.677 2.522-1.844 1-3.5 1.646-3.76 2.646-7.76 3-12a4.932 4.932 0 0 0-1-2.5c.756-4.712 1.756-9.38 3-14l-1-1c2.498-1.951 3.165-4.285 2-7a201.7 201.7 0 0 0 11-11 4.932 4.932 0 0 1 3-.5z"/><path style="opacity:1" fill="#df94b9" d="M627.5 49.5c-7.393 2.018-14.893 2.35-22.5 1-5.308.934-10.142 2.934-14.5 6-2.935-.399-5.769-.399-8.5 0-1.353-1.204-3.019-1.87-5-2-8.899 1.1-17.732 2.6-26.5 4.5 1.84 2.206 2.674 4.706 2.5 7.5l-1-1a398.36 398.36 0 0 1-23 3 45.786 45.786 0 0 0-11-4 180.503 180.503 0 0 1-33.5 4 68.024 68.024 0 0 1 7-2 781.04 781.04 0 0 1 91-13.5c13.567-5.043 27.567-6.71 42-5 1.237.232 2.237.732 3 1.5z"/><path style="opacity:1" fill="#fdb2dd" d="M177.5 395.5c-8.726-64.462 6.774-122.129 46.5-173a11.532 11.532 0 0 1 4.5-3.5l11-1 1.5-1.5a335.252 335.252 0 0 1 2-15l22.5-20.5c12.536 2.165 19.369-3.001 20.5-15.5 3.4-2.914 6.9-5.58 10.5-8a313.366 313.366 0 0 0 20-12.5l15-1c.556-.383.889-.883 1-1.5a125.763 125.763 0 0 1 6-7.5 72.4 72.4 0 0 1 14-8c5.72-.086 11.386.248 17 1l12-13c57.147-22.285 116.48-36.785 178-43.5 2.056.548 3.723 1.714 5 3.5-3.414 5.675-5.581 11.842-6.5 18.5a146.092 146.092 0 0 0 1 31c4.907 21.133 12.574 41.133 23 60 12.418 19.616 29.585 33.116 51.5 40.5a237.236 237.236 0 0 0 23 2c1.074.739 1.741 1.739 2 3-24.233 23.629-51.233 43.629-81 60-4.312.774-8.478.274-12.5-1.5-5.021 2.029-8.188 5.696-9.5 11a56.58 56.58 0 0 1-9 5.5c-3.913 3.214-3.913 6.38 0 9.5 6.307.571 12.64.738 19 .5a14.51 14.51 0 0 1 4.5 4.5c19.806 35.696 26.472 73.696 20 114-6.198 27.409-19.364 50.742-39.5 70-40.694 36.337-88.361 57.503-143 63.5-49.396 6.331-96.063-2.002-140-25-35.992-22.146-61.492-52.98-76.5-92.5a224.46 224.46 0 0 1-13.5-54z"/><path style="opacity:1" fill="#baa8a2" d="M209.5 76.5a111.402 111.402 0 0 0-27 2c1.777-1.1 3.777-1.934 6-2.5 7.179-.821 14.179-.655 21 .5z"/><path style="opacity:1" fill="#76c66a" d="M799.5 82.5v661c-1 .333-1.667 1-2 2-.667 0-1 .333-1 1-8.106 23.606-24.773 40.106-50 49.5a14.698 14.698 0 0 0-3 3.5h-83c-6.366-48.815-16.199-97.149-29.5-145a407.745 407.745 0 0 0-18.5-50c2.705 1.277 5.372 1.11 8-.5a378.999 378.999 0 0 1 44.5-20.5 2029.494 2029.494 0 0 1 28.5 10c4.531-1.345 8.031-4.012 10.5-8 1.194-5.762-.973-9.596-6.5-11.5-3.993-3.062-3.659-5.729 1-8l18-4c8.419-7.316 7.752-13.649-2-19a126.928 126.928 0 0 0-26 2.5c-3.305.288-6.138-.712-8.5-3-.667-1.333-.667-2.667 0-4a41.002 41.002 0 0 0 3.5-8c4.573-7.463 2.906-13.296-5-17.5a16.242 16.242 0 0 0-8 0c-6.077 4.976-10.577 11.142-13.5 18.5a189.115 189.115 0 0 0-8.5 29 599.614 599.614 0 0 1-41 21.5 11.105 11.105 0 0 0-3 4.5c-11.091-22.906-24.758-44.072-41-63.5a12.93 12.93 0 0 0-5-.5 356.2 356.2 0 0 0 31.5-39 75.037 75.037 0 0 1 9-17 109.572 109.572 0 0 0 6.5-21c2.127-6.032 3.627-12.365 4.5-19 2.484-15.256 1.984-30.256-1.5-45l-2-13c-.557-4.665-1.89-8.998-4-13a203.97 203.97 0 0 0-16.5-39c-.837-2.321-1.17-4.655-1-7a25.55 25.55 0 0 1 6.5-5.5c35.576-16.721 66.41-39.887 92.5-69.5a235.89 235.89 0 0 0 28-35 122.324 122.324 0 0 1 7-13 90.761 90.761 0 0 0 4.5-21c1.627-10.463.96-20.796-2-31a46.86 46.86 0 0 0-2-9c.064-2.04.231-4.373.5-7 3.149 4.058 4.649 3.391 4.5-2a18.453 18.453 0 0 0 6-.5c-2.951-.096-5.618-.929-8-2.5.346-1.196.846-1.196 1.5 0a4.934 4.934 0 0 0 .5-3c-3.524-.429-6.524-1.929-9-4.5a9.454 9.454 0 0 0 2.5-1.5c2.469.647 5.302.98 8.5 1a4.934 4.934 0 0 1 .5-3c.914 1.154 1.747.987 2.5-.5-2.404-.508-3.071-1.675-2-3.5-1.701.31-3.368-.19-5-1.5l1-1c-1.349-.772-2.182-1.94-2.5-3.5l-1 2c-1.758-.97-2.258-2.136-1.5-3.5-3.652-2.274-5.485-5.44-5.5-9.5a114.948 114.948 0 0 0 6.5 3 4.451 4.451 0 0 0 2-1.5l-3-3a34.468 34.468 0 0 1 1-6l63-1 9-5.5c5.635 3.008 6.302 6.841 2 11.5 2.154 1.32 3.654 3.153 4.5 5.5.278-.916.778-1.582 1.5-2z"/><path style="opacity:1" fill="#e193bc" d="M368.5 34.5c2.323 2.635 4.156 5.635 5.5 9 6.057 15.78 8.723 32.113 8 49 1.351 1.51 3.018 2.51 5 3 31.604-11.862 64.104-20.862 97.5-27-.384 1.793-1.55 2.793-3.5 3a230.463 230.463 0 0 0-11.5 2 7.253 7.253 0 0 1-2 2.5c1.134 1.016.801 1.683-1 2-1.979.684-3.646.184-5-1.5a18.95 18.95 0 0 1-5 3c1.109 1.465.609 2.465-1.5 3-.492 1.049-.326 2.049.5 3-2.216 2.718-2.883 2.551-2-.5-2.408-3.94-5.241-4.107-8.5-.5l-1-2c-1.113 1.211-2.28 1.211-3.5 0a37.107 37.107 0 0 0-4.5 2c-3.012.677-6.179.677-9.5 0a43.166 43.166 0 0 1-10 3 4.934 4.934 0 0 1-.5 3l-1-1a8.902 8.902 0 0 1-3 4l-1-2c-3.433.963-6.266 2.796-8.5 5.5 1.585.085 2.918.251 4 .5-1.133 2.405-2.8 4.905-5 7.5-5.894 1.037-11.561.371-17-2 .84-1.666.34-1.833-1.5-.5l-2-4c-.667 1.333-1.333 1.333-2 0a53.878 53.878 0 0 0-3.5-10c3.861-1.098 3.861-1.93 0-2.5l2-6c-1.41-.368-2.41-1.201-3-2.5 1.216-.596 2.549-.763 4-.5-.11-3.22-.777-6.554-2-10 .657-3.684-.509-6.851-3.5-9.5-2.873.913-3.04 2.413-.5 4.5a9.465 9.465 0 0 0-2.5 1.5c-1.513-2.524-2.18-5.19-2-8 2.438 1.366 2.938.866 1.5-1.5a11.296 11.296 0 0 1 2-4c-1.226-2.37-2.06-4.536-2.5-6.5a40.911 40.911 0 0 1-.5-9z"/><path style="opacity:1" fill="#e890c3" d="M457.5 103.5c22.433-2.479 39.933 5.521 52.5 24a84.028 84.028 0 0 0 4 14c.948 21.268-7.552 37.768-25.5 49.5-16.614 8.976-32.948 8.643-49-1-9.001-7.832-14.501-17.666-16.5-29.5-3.628-19.118 1.872-34.952 16.5-47.5a235.63 235.63 0 0 1 18-9.5z"/><path style="opacity:1" fill="#f9f8f9" d="M455.5 122.5c8.928-.661 17.595.505 26 3.5 12.216 6.621 16.716 16.788 13.5 30.5-9.241 19.203-24.074 25.703-44.5 19.5-6.226-4.232-10.059-10.066-11.5-17.5-2.151-10.6-.151-20.266 6-29 3.154-3.012 6.654-5.345 10.5-7z"/><path style="opacity:1" fill="#030303" d="M456.5 141.5c9.231-1.135 15.731 2.532 19.5 11 .5 11.5-5 17-16.5 16.5-9.828-4.154-13.328-11.321-10.5-21.5 2.114-2.621 4.614-4.621 7.5-6z"/><path style="opacity:1" fill="#bca19d" d="M721.5 134.5c2.96 10.204 3.627 20.537 2 31a176.746 176.746 0 0 0-2-31z"/><path style="opacity:1" fill="#e890c2" d="M361.5 148.5c20.303-.269 34.803 8.731 43.5 27 6.549 16.068 7.216 32.401 2 49-14.413 24.169-35.246 32.002-62.5 23.5-23.318-13.606-31.151-33.44-23.5-59.5 7.711-19.212 21.211-32.545 40.5-40z"/><path style="opacity:1" fill="#fbfafb" d="M361.5 167.5c15.898.157 26.398 7.824 31.5 23 6.541 22.417-1.292 37.251-23.5 44.5-21.578 1.261-33.578-8.905-36-30.5 1.456-13.417 7.456-24.25 18-32.5a525.05 525.05 0 0 0 10-4.5z"/><path style="opacity:1" fill="#e790c1" d="M209.5 76.5c3.412 1.859 7.078 3.026 11 3.5 20.157 9.657 35.157 24.49 45 44.5.066 3.164 1.066 5.998 3 8.5a42.275 42.275 0 0 0-4 6.5l1.5 3 1-1c2.269 2.339 3.769 1.672 4.5-2a11.38 11.38 0 0 1 2 2.5 34.474 34.474 0 0 0-1 6c2.664 3.59 5.998 5.09 10 4.5 3.613-.546 7.113-2.213 10.5-5 3.044 2.907 4.21 6.24 3.5 10-3.6 2.42-7.1 5.086-10.5 8-1.131 12.499-7.964 17.665-20.5 15.5L243 201.5a335.252 335.252 0 0 0-2 15l-1.5 1.5-11 1a11.532 11.532 0 0 0-4.5 3.5c-39.726 50.871-55.226 108.538-46.5 173a67.084 67.084 0 0 0-3 11.5c-1.608.658-2.775.158-3.5-1.5-1.714 1.425-3.047 1.092-4-1a26.585 26.585 0 0 0-3.5 2c.28 3.547.28 7.213 0 11a1333.635 1333.635 0 0 1-5-27c-.167-17.337 0-34.67.5-52 7.288-47.898 25.455-91.065 54.5-129.5-.876-2.879-2.542-5.213-5-7-19.055-14.958-34.222-33.124-45.5-54.5-6.038-11.971-8.038-24.638-6-38 3.282-14.768 11.782-25.102 25.5-31a111.402 111.402 0 0 1 27-2z"/><path style="opacity:1" fill="#fcb1dd" d="M190.5 94.5c10.754-1.247 20.754.92 30 6.5a78.664 78.664 0 0 1 12 9c13.081 14.323 22.414 30.823 28 49.5-2.441 5.609-6.441 9.775-12 12.5a296.34 296.34 0 0 0-20 21c-4.309 1.198-7.976.198-11-3-14.075-13.06-26.241-27.56-36.5-43.5a314.572 314.572 0 0 1-6-19c-3.332-15.325 1.835-26.325 15.5-33z"/><path style="opacity:1" fill="#080808" d="M354.5 195.5c15.082.57 20.582 7.903 16.5 22-5.758 7.71-12.591 8.876-20.5 3.5-10.279-10.49-8.946-18.99 4-25.5z"/><path style="opacity:1" fill="#e790c1" d="M357.5 20.5c5.112 3.57 8.778 8.236 11 14a40.911 40.911 0 0 0 .5 9c.44 1.964 1.274 4.13 2.5 6.5a11.296 11.296 0 0 0-2 4c1.438 2.366.938 2.866-1.5 1.5-.18 2.81.487 5.476 2 8a9.465 9.465 0 0 1 2.5-1.5c-2.54-2.087-2.373-3.587.5-4.5 2.991 2.649 4.157 5.816 3.5 9.5 1.223 3.446 1.89 6.78 2 10-1.451-.263-2.784-.096-4 .5.59 1.299 1.59 2.132 3 2.5l-2 6c3.861.57 3.861 1.402 0 2.5a53.878 53.878 0 0 1 3.5 10c.667 1.333 1.333 1.333 2 0l2 4c1.84-1.333 2.34-1.166 1.5.5 5.439 2.371 11.106 3.037 17 2 2.2-2.595 3.867-5.095 5-7.5-1.082-.249-2.415-.415-4-.5 2.234-2.704 5.067-4.537 8.5-5.5l1 2a8.902 8.902 0 0 0 3-4l1 1a4.934 4.934 0 0 0 .5-3 43.166 43.166 0 0 0 10-3c3.321.677 6.488.677 9.5 0a37.107 37.107 0 0 1 4.5-2c1.22 1.211 2.387 1.211 3.5 0l1 2c3.259-3.607 6.092-3.44 8.5.5-.883 3.051-.216 3.218 2 .5-.826-.951-.992-1.951-.5-3 2.109-.535 2.609-1.535 1.5-3a18.95 18.95 0 0 0 5-3c1.354 1.684 3.021 2.184 5 1.5 1.801-.317 2.134-.984 1-2a7.253 7.253 0 0 0 2-2.5 230.463 230.463 0 0 1 11.5-2c1.95-.207 3.116-1.207 3.5-3a180.503 180.503 0 0 0 33.5-4 45.786 45.786 0 0 1 11 4 398.36 398.36 0 0 0 23-3l1 1c.174-2.794-.66-5.294-2.5-7.5 8.768-1.9 17.601-3.4 26.5-4.5 1.981.13 3.647.796 5 2 2.731-.399 5.565-.399 8.5 0 4.358-3.066 9.192-5.066 14.5-6 7.607 1.35 15.107 1.018 22.5-1a112.425 112.425 0 0 1 22 5c33.458 13.79 56.792 37.457 70 71a46.86 46.86 0 0 1 2 9 176.746 176.746 0 0 1 2 31 90.761 90.761 0 0 1-4.5 21 122.324 122.324 0 0 0-7 13 235.89 235.89 0 0 1-28 35c-26.09 29.613-56.924 52.779-92.5 69.5a25.55 25.55 0 0 0-6.5 5.5c-.17 2.345.163 4.679 1 7a203.97 203.97 0 0 1 16.5 39c.557 4.665 1.89 8.998 4 13l2 13a364.152 364.152 0 0 1 .5 43 880.29 880.29 0 0 0-3.5 21 109.572 109.572 0 0 1-6.5 21 75.037 75.037 0 0 0-9 17 356.2 356.2 0 0 1-31.5 39 44.684 44.684 0 0 0-9 7c-45.44 35.884-97.44 55.384-156 58.5-49.455 4.039-95.789-5.961-139-30a175.205 175.205 0 0 1-21-14.5 83.084 83.084 0 0 1-8-7.5 4.934 4.934 0 0 0-3-.5c.237-1.291-.096-2.291-1-3-26.202-25.72-44.202-56.387-54-92a107.477 107.477 0 0 0-3.5-14 40.914 40.914 0 0 1-.5-9c.28-3.787.28-7.453 0-11a26.585 26.585 0 0 1 3.5-2c.953 2.092 2.286 2.425 4 1 .725 1.658 1.892 2.158 3.5 1.5a67.084 67.084 0 0 1 3-11.5 224.46 224.46 0 0 0 13.5 54c15.008 39.52 40.508 70.354 76.5 92.5 43.937 22.998 90.604 31.331 140 25 54.639-5.997 102.306-27.163 143-63.5 20.136-19.258 33.302-42.591 39.5-70 6.472-40.304-.194-78.304-20-114a14.51 14.51 0 0 0-4.5-4.5c-6.36.238-12.693.071-19-.5-3.913-3.12-3.913-6.286 0-9.5a56.58 56.58 0 0 0 9-5.5c1.312-5.304 4.479-8.971 9.5-11 4.022 1.774 8.188 2.274 12.5 1.5 29.767-16.371 56.767-36.371 81-60-.259-1.261-.926-2.261-2-3a237.236 237.236 0 0 1-23-2c-21.915-7.384-39.082-20.884-51.5-40.5-10.426-18.867-18.093-38.867-23-60a146.092 146.092 0 0 1-1-31c.919-6.658 3.086-12.825 6.5-18.5-1.277-1.786-2.944-2.952-5-3.5-61.52 6.715-120.853 21.215-178 43.5l-12 13a114.857 114.857 0 0 0-17-1 72.4 72.4 0 0 0-14 8 125.763 125.763 0 0 0-6 7.5c-1.478.262-2.811-.071-4-1 .369-2.886.369-5.886 0-9a36.167 36.167 0 0 0-8-2.5l1-1a26.023 26.023 0 0 0-4-4.5 3.647 3.647 0 0 1 1-1.5l-5-1a8.905 8.905 0 0 0-4-3c1.801-.317 2.134-.984 1-2a17.65 17.65 0 0 0-6 .5c-.219-1.175.114-2.175 1-3 1.465 1.109 2.465.609 3-1.5-4.024-1.35-5.024-4.016-3-8l-2-1c-.561-1.566.106-2.899 2-4-2.432-1.088-2.098-1.588 1-1.5.171-3.297-.495-3.63-2-1-1.54-1.937-3.54-3.104-6-3.5l1-1a134.575 134.575 0 0 1-5-15c1.284-.684 2.451-.517 3.5.5.236-1.62 1.069-2.62 2.5-3a148.283 148.283 0 0 0 9.5 21 271.029 271.029 0 0 1 11 19 21.365 21.365 0 0 0 6 5 1021.582 1021.582 0 0 1 27.5-12c1.333-2 3-3.667 5-5 3.608-18.01 2.441-35.676-3.5-53-6.345-15.013-17.178-25.18-32.5-30.5-10.118-2.563-18.452-.063-25 7.5h-3a4.934 4.934 0 0 0-.5-3c-2.158 1.177-3.658.51-4.5-2-.98-2.205-.98-4.038 0-5.5 4.392-3.183 9.226-5.683 14.5-7.5a4.458 4.458 0 0 0 1.5 2c1.924-.067 3.924-.4 6-1a9.42 9.42 0 0 1 3-3c-1.151-1.231-2.317-1.231-3.5 0a4.934 4.934 0 0 1-.5-3c4.111-1.415 8.111-1.082 12 1 1.639 2.54 1.306 4.707-1 6.5l1.5 1.5c1.085-2.157 2.251-2.324 3.5-.5-1.943 1.193-1.776 2.693.5 4.5 1.821-2.649 4.321-4.316 7.5-5 2.267.059 2.933.892 2 2.5l5.5 5.5c5.727.782 10.56.782 14.5 0z"/><path style="opacity:1" fill="#fcb1dd" d="M592.5 68.5c49.664-4.928 85.498 14.738 107.5 59 8.327 20.753 6.993 40.753-4 60-17.173 20.279-38.339 26.113-63.5 17.5-15.296-7.294-27.462-18.128-36.5-32.5a237.77 237.77 0 0 1-19-42c-3.27-12.445-4.27-25.112-3-38 2.606-10.94 8.773-18.94 18.5-24z"/><path style="opacity:1" fill="#d16ba5" d="M614.5 124.5c12.721 1.23 18.221 8.23 16.5 21-4.191 10.287-11.358 13.12-21.5 8.5-7.797-6.519-8.964-14.019-3.5-22.5 2.441-2.954 5.275-5.287 8.5-7z"/><path style="opacity:1" fill="#d16aa5" d="M658.5 113.5c8.579-.571 14.412 3.096 17.5 11 1.448 14.552-5.052 21.052-19.5 19.5-9.064-5.866-11.231-13.7-6.5-23.5 2.441-2.954 5.275-5.287 8.5-7z"/><path style="opacity:1" fill="#fc8ecf" d="M253.5 300.5a338.177 338.177 0 0 0 25 2.5 149.666 149.666 0 0 0 16 6 74.685 74.685 0 0 0 13 7 45.255 45.255 0 0 1 8.5 7.5 1758.13 1758.13 0 0 1 11 17c4.207 11.305 5.54 22.972 4 35-2.676 12.01-7.009 23.343-13 34a101.553 101.553 0 0 0-11.5 12.5 152.9 152.9 0 0 0-15 7c-15.568 2.518-30.235.185-44-7-26.076-15.636-39.076-38.803-39-69.5l.5-10c1.889-4.064 2.889-8.397 3-13a129.073 129.073 0 0 0 8-13c8.992-9.073 20.158-14.407 33.5-16z"/><path style="opacity:1" fill="#b2a89a" d="M602.5 355.5c2.11 4.002 3.443 8.335 4 13-2.11-4.002-3.443-8.335-4-13z"/><path style="opacity:1" fill="#ca9faa" d="M608.5 381.5c3.484 14.744 3.984 29.744 1.5 45-.873 6.635-2.373 12.968-4.5 19a880.29 880.29 0 0 1 3.5-21c.68-14.348.514-28.681-.5-43z"/><path style="opacity:1" fill="#8abd79" d="M158.5 390.5a1333.635 1333.635 0 0 0 5 27 40.914 40.914 0 0 0 .5 9 107.477 107.477 0 0 1 3.5 14c-.823-4.32-3.489-6.82-8-7.5l2-3c-.535-1.462-.535-3.128 0-5a258.703 258.703 0 0 1-3-34.5z"/><path style="opacity:1" fill="#d3488c" d="M536.5 364.5c3.692.438 6.192 2.438 7.5 6 1.801 37.231-13.699 64.731-46.5 82.5-29.63 14.809-60.297 17.476-92 8-19.464-7.966-33.464-21.466-42-40.5 2.094-7.52 6.76-10.02 14-7.5 29.088 35.273 65.088 44.607 108 28 29.359-14.191 44.525-37.691 45.5-70.5 1.36-2.523 3.193-4.523 5.5-6z"/><path style="opacity:1" fill="#f4bad9" d="M150.5 547.5c-3.117-.372-6.117-.372-9 0-1.196-.346-1.196-.846 0-1.5l-6-2c-1.245-2.657-3.245-4.49-6-5.5-.952-1.545-1.285-3.212-1-5-10.436.024-12.77-4.31-7-13-.249-3.67-.583-7.67-1-12 1.154-2.602 1.654-5.268 1.5-8-2.657-3.391-5.657-5.724-9-7l-1.5 3c1.456-.178 2.789.656 4 2.5-1.036 1.617-2.203 1.784-3.5.5-3.462 3.677-2.962 6.843 1.5 9.5l-1 1c1.473.71 2.14 1.876 2 3.5a4.934 4.934 0 0 0-3 .5c3.434 2.301 4.267 5.134 2.5 8.5l-1-1a38.852 38.852 0 0 1-1.5 7l-1.5 1c-2.256-1.585-4.756-2.252-7.5-2v-3a18.453 18.453 0 0 1-6-.5c-1.256-.417-1.923-1.25-2-2.5 3.609 2.373 7.109 2.373 10.5 0-.357-4.058-1.857-7.725-4.5-11l-6.5-13c-.576-1.877-.41-3.711.5-5.5 4.586-8.466 10.919-10.132 19-5a89.549 89.549 0 0 1 11.5 16.5 290.769 290.769 0 0 1 10 35 764.036 764.036 0 0 0 15.5 9z"/><path style="opacity:1" fill="#82c275" d="M100.5 510.5c2.643 3.275 4.143 6.942 4.5 11-3.391 2.373-6.891 2.373-10.5 0a744.192 744.192 0 0 1-23-6c3.065.259 5.565-.741 7.5-3 .408 1.91 1.575 2.91 3.5 3 1.363-.698 2.53-.698 3.5 0l1-2c2.68 4.851 6.513 6.351 11.5 4.5-1.333-.667-1.333-1.333 0-2l-2-1 4-1c-.671-.986-.671-2.153 0-3.5z"/><path style="opacity:1" fill="#dd373e" d="M558.5 522.5a12.93 12.93 0 0 1 5 .5c16.242 19.428 29.909 40.594 41 63.5l8 18a407.745 407.745 0 0 1 18.5 50c13.301 47.851 23.134 96.185 29.5 145h-23a279.2 279.2 0 0 0-5-38 1188.883 1188.883 0 0 1-10.5-55 4696.994 4696.994 0 0 1-18-65 539.138 539.138 0 0 0-36-80l-19-25a11.596 11.596 0 0 1 .5-7 44.684 44.684 0 0 1 9-7z"/><path style="opacity:1" fill="#f8b9de" d="M150.5 547.5a580.527 580.527 0 0 1 49 27c2.775 3.105 6.108 5.438 10 7a1023.965 1023.965 0 0 1 31 24.5c8.5 8.015 7.5 14.682-3 20-7.66 1.227-14.66-.44-21-5a328.429 328.429 0 0 0-19-12.5 40.606 40.606 0 0 0-10-7c-21.798-15.746-45.131-29.246-70-40.5-3.399-.546-6.732-.213-10 1a228.75 228.75 0 0 1-19 7c-10.622 2.366-15.789-1.8-15.5-12.5 1.974-4.641 5.308-7.974 10-10 .711-1.867.211-3.367-1.5-4.5a96.435 96.435 0 0 1-21-5c-6.253-4.093-8.087-9.593-5.5-16.5 4.617-4.357 10.117-6.024 16.5-5a744.192 744.192 0 0 0 23 6c.077 1.25.744 2.083 2 2.5 1.973.495 3.973.662 6 .5v3c2.744-.252 5.244.415 7.5 2l1.5-1a38.852 38.852 0 0 0 1.5-7l1 1c1.767-3.366.934-6.199-2.5-8.5a4.934 4.934 0 0 1 3-.5c.14-1.624-.527-2.79-2-3.5l1-1c-4.462-2.657-4.962-5.823-1.5-9.5 1.297 1.284 2.464 1.117 3.5-.5-1.211-1.844-2.544-2.678-4-2.5l1.5-3c3.343 1.276 6.343 3.609 9 7 .154 2.732-.346 5.398-1.5 8 .417 4.33.751 8.33 1 12-5.77 8.69-3.436 13.024 7 13-.285 1.788.048 3.455 1 5 2.755 1.01 4.755 2.843 6 5.5l6 2c-1.196.654-1.196 1.154 0 1.5 2.883-.372 5.883-.372 9 0z"/><path style="opacity:1" fill="#dd363f" d="M221.5 532.5c.904.709 1.237 1.709 1 3a4.934 4.934 0 0 1 3 .5 83.084 83.084 0 0 0 8 7.5 6.846 6.846 0 0 0 1 4c-1.817 4.779-4.984 9.779-9.5 15a262.845 262.845 0 0 1-9.5 17c-1.673 1.586-3.673 2.253-6 2-3.892-1.562-7.225-3.895-10-7a18.473 18.473 0 0 0-2-3.5c6.941-13.763 14.941-26.596 24-38.5z"/><path style="opacity:1" fill="#e7555c" d="M549.5 529.5a11.596 11.596 0 0 0-.5 7l19 25a539.138 539.138 0 0 1 36 80 4696.994 4696.994 0 0 0 18 65 1188.883 1188.883 0 0 0 10.5 55 279.2 279.2 0 0 1 5 38h-482c1.3-13.34 2.8-26.673 4.5-40a3433.779 3433.779 0 0 1 14-66 976.213 976.213 0 0 1 25.5-80.5 27.648 27.648 0 0 0-2-4.5 328.429 328.429 0 0 1 19 12.5c6.34 4.56 13.34 6.227 21 5 10.5-5.318 11.5-11.985 3-20a1023.965 1023.965 0 0 0-31-24.5c2.327.253 4.327-.414 6-2a262.845 262.845 0 0 0 9.5-17c4.516-5.221 7.683-10.221 9.5-15a6.846 6.846 0 0 1-1-4 175.205 175.205 0 0 0 21 14.5c43.211 24.039 89.545 34.039 139 30 58.56-3.116 110.56-22.616 156-58.5z"/><path style="opacity:1" fill="#87bc7a" d="M683.5 530.5a41.002 41.002 0 0 1-3.5 8c-.667 1.333-.667 2.667 0 4 2.362 2.288 5.195 3.288 8.5 3-3.24 1.276-6.573 2.61-10 4-3.929-1.623-4.763-4.29-2.5-8 2.523-3.733 5.023-7.399 7.5-11z"/><path style="opacity:1" fill="#f6badc" d="M683.5 530.5a1625.135 1625.135 0 0 0-7.5 11c-2.263 3.71-1.429 6.377 2.5 8 3.427-1.39 6.76-2.724 10-4a126.928 126.928 0 0 1 26-2.5c9.752 5.351 10.419 11.684 2 19l-18 4c-4.659 2.271-4.993 4.938-1 8 5.527 1.904 7.694 5.738 6.5 11.5-2.469 3.988-5.969 6.655-10.5 8a2029.494 2029.494 0 0 0-28.5-10 378.999 378.999 0 0 0-44.5 20.5c-2.628 1.61-5.295 1.777-8 .5l-8-18a11.105 11.105 0 0 1 3-4.5 599.614 599.614 0 0 0 41-21.5 189.115 189.115 0 0 1 8.5-29c2.923-7.358 7.423-13.524 13.5-18.5a16.242 16.242 0 0 1 8 0c7.906 4.204 9.573 10.037 5 17.5z"/><path style="opacity:1" fill="#dd363e" d="M187.5 601.5a40.606 40.606 0 0 1 10 7 27.648 27.648 0 0 1 2 4.5 976.213 976.213 0 0 0-25.5 80.5 3433.779 3433.779 0 0 0-14 66c-1.7 13.327-3.2 26.66-4.5 40h-22a76.32 76.32 0 0 1 2-14c.239-4.342.573-8.676 1-13 4.202-20.511 8.369-41.178 12.5-62 7.554-36.164 18.554-71.497 33-106 1.264-2.107 3.097-3.107 5.5-3z"/><path style="opacity:.004" fill="#0f0" d="M797.5 745.5c1.213.997 1.046 1.997-.5 3a2.428 2.428 0 0 1-.5-2c.667 0 1-.333 1-1z"/><path style="opacity:1" fill="#fab9de" d="M116.5 726.5c1.667 1 3 2.333 4 4 1.035 1.705 1.035 3.372 0 5 .965 1.414 1.965 2.247 3 2.5-1.84 4.527-1.84 8.86 0 13 .483 5.31-.184 10.643-2 16a22.413 22.413 0 0 0 5 7c-3.966 10.144-7.966 9.644-12-1.5a10.756 10.756 0 0 1-3 2.5 207.328 207.328 0 0 0 3 7c-1.535.496-3.035.33-4.5-.5-2.225 2.519-4.392 2.353-6.5-.5 2.437-1.279 2.937-2.779 1.5-4.5a180.522 180.522 0 0 1-7.5 10c-2.195 1.269-4.362 1.269-6.5 0l-1 2h-6c-3.445-2.647-5.945-2.147-7.5 1.5l1.5 1.5c1.011-.837 2.178-1.17 3.5-1v5a8.43 8.43 0 0 1-4-.5c-1.333-.667-1.333-1.333 0-2-3.91-1.588-7.243-3.921-10-7a35.57 35.57 0 0 1 6-8c-2.163-.245-3.83-1.245-5-3a8.43 8.43 0 0 1 4-.5c.087-6.438.92-6.438 2.5 0l3 2c3.726-.424 7.226-.424 10.5 0 .506-3.385 2.84-4.718 7-4-.634 5.59 1.032 7.09 5 4.5a15.28 15.28 0 0 1-1.5-4.5c-.654 1.196-1.154 1.196-1.5 0 1.869-2.507 1.869-4.674 0-6.5a3.942 3.942 0 0 1 1-2c-5.008-.869-4.675-1.536 1-2 4.222-3.204 7.222-7.204 9-12-1.103-1.68-.77-3.18 1-4.5-4.12-2.941-8.453-4.274-13-4-1.833.085-3.166.752-4 2-3.67-.803-7.17-.136-10.5 2-.743 1.941-.576 3.774.5 5.5-2.805 2.687-2.471 3.687 1 3 .655-1.487 1.655-2.653 3-3.5 1.254 1.759.92 3.259-1 4.5 1.238-.077 2.238.089 3 .5-1.35 1.52-2.683 2.187-4 2a14.962 14.962 0 0 0 3 3.5c-3.113-.053-5.613 1.114-7.5 3.5-.08-1.748-.913-3.415-2.5-5-3.495 2.365-3.828 1.698-1-2-.774-1.211-1.607-1.211-2.5 0a10.76 10.76 0 0 0-2.5-3 3.646 3.646 0 0 1 1-1.5c-2.023-3.183-2.523-6.683-1.5-10.5.556 2.095 1.056 2.262 1.5.5-1.024-2.178-.857-4.345.5-6.5l1 2c.724-2.459 2.057-3.459 4-3 .617-.949.45-1.782-.5-2.5.95-.617 1.782-.451 2.5.5 1.171-1.393 2.671-2.227 4.5-2.5a261.12 261.12 0 0 1 2-7.5 8.193 8.193 0 0 1 4-2.5c-1.154-.914-.987-1.747.5-2.5 3.459.633 6.959 1.3 10.5 2a87.421 87.421 0 0 0 9 12.5c1.333.667 2.667.667 4 0-5.651-1.159-6.651-3.993-3-8.5 1.634.468 2.8 1.468 3.5 3 .383-.556.883-.889 1.5-1z"/><path style="opacity:1" fill="#f5badb" d="M116.5 726.5c-.617.111-1.117.444-1.5 1-.7-1.532-1.866-2.532-3.5-3-3.651 4.507-2.651 7.341 3 8.5-1.333.667-2.667.667-4 0a87.421 87.421 0 0 1-9-12.5c-3.541-.7-7.041-1.367-10.5-2-1.487.753-1.654 1.586-.5 2.5a8.193 8.193 0 0 0-4 2.5 261.449 261.449 0 0 0-2 7.5c-1.829.273-3.329 1.107-4.5 2.5-.718-.951-1.55-1.117-2.5-.5.95.718 1.117 1.551.5 2.5-1.943-.459-3.276.541-4 3l-1-2c-1.357 2.155-1.524 4.322-.5 6.5-.444 1.762-.944 1.595-1.5-.5-1.023 3.817-.523 7.317 1.5 10.5-.457.414-.79.914-1 1.5a10.76 10.76 0 0 1 2.5 3c.893-1.211 1.726-1.211 2.5 0-2.828 3.698-2.495 4.365 1 2 1.587 1.585 2.42 3.252 2.5 5 1.887-2.386 4.387-3.553 7.5-3.5a14.962 14.962 0 0 1-3-3.5c1.317.187 2.65-.48 4-2-.762-.411-1.762-.577-3-.5 1.92-1.241 2.254-2.741 1-4.5-1.345.847-2.345 2.013-3 3.5-3.471.687-3.805-.313-1-3-1.076-1.726-1.243-3.559-.5-5.5 3.33-2.136 6.83-2.803 10.5-2 .834-1.248 2.167-1.915 4-2 4.547-.274 8.88 1.059 13 4-1.77 1.32-2.103 2.82-1 4.5-1.778 4.796-4.778 8.796-9 12-5.675.464-6.008 1.131-1 2a3.942 3.942 0 0 0-1 2c1.869 1.826 1.869 3.993 0 6.5.346 1.196.846 1.196 1.5 0a15.28 15.28 0 0 0 1.5 4.5c-3.968 2.59-5.634 1.09-5-4.5-4.16-.718-6.494.615-7 4-3.274-.424-6.774-.424-10.5 0l-3-2c-1.58-6.438-2.413-6.438-2.5 0a8.43 8.43 0 0 0-4 .5c1.17 1.755 2.837 2.755 5 3a35.57 35.57 0 0 0-6 8c2.757 3.079 6.09 5.412 10 7-1.333.667-1.333 1.333 0 2a8.43 8.43 0 0 0 4 .5v-5c-1.322-.17-2.489.163-3.5 1l-1.5-1.5c1.555-3.647 4.055-4.147 7.5-1.5h6l1-2c2.138 1.269 4.305 1.269 6.5 0a180.522 180.522 0 0 0 7.5-10c1.437 1.721.937 3.221-1.5 4.5 2.108 2.853 4.275 3.019 6.5.5 1.465.83 2.965.996 4.5.5a207.328 207.328 0 0 1-3-7 10.756 10.756 0 0 0 3-2.5c4.034 11.144 8.034 11.644 12 1.5a22.413 22.413 0 0 1-5-7c1.816-5.357 2.483-10.69 2-16-1.84-4.14-1.84-8.473 0-13-1.035-.253-2.035-1.086-3-2.5 1.035-1.628 1.035-3.295 0-5 1.723 1.753 3.223 3.753 4.5 6 2.576 10.493 1.742 20.66-2.5 30.5 2.922 3.499 6.589 4.499 11 3a10.515 10.515 0 0 0 3 2.5 300.134 300.134 0 0 0-1 13c-1.645.979-2.979 2.312-4 4a256.152 256.152 0 0 1-33 .5c-3.46 2.396-7.126 4.23-11 5.5-15.547 3.387-29.88.721-43-8-5.698-5.209-10.531-11.209-14.5-18-1.325-3.928-1.658-7.928-1-12 7.583-8.121 14.917-7.788 22 1 3.601 8.871 10.101 13.371 19.5 13.5a4.94 4.94 0 0 0 1-2.5c-6.414-12.608-6.58-25.274-.5-38 13.494-18.109 28.66-19.775 45.5-5z"/><path style="opacity:1" fill="#7dc26f" d="M92.5 743.5c5.21-1.78 9.044-.113 11.5 5 .521 5.13-1.312 9.297-5.5 12.5-5.956-.3-8.956-3.634-9-10 .32-2.805 1.32-5.305 3-7.5z"/><path style="opacity:.004" d="M789.5 769.5c1.333.667 1.333.667 0 0zm3 1c1.333.667 1.333.667 0 0z"/><path style="opacity:.004" fill="#0f0" d="M785.5 774.5c.397-1.025 1.063-1.192 2-.5a2.428 2.428 0 0 1-2 .5zm4 0c1.333.667 1.333.667 0 0zm-4 5c1.333.667 1.333.667 0 0zm-8 3c1.333.667 1.333.667 0 0zm-4 3c1.333.667 1.333.667 0 0zm6 0c1.333.667 1.333.667 0 0z"/><path style="opacity:.008" fill="green" d="M34.5 789.5c1.333.667 1.333.667 0 0z"/><path style="opacity:.004" fill="#0f0" d="M774.5 789.5c1.333.667 1.333.667 0 0z"/><path style="opacity:1" fill="#78c56b" d="M135.5 785.5a76.32 76.32 0 0 0-2 14h-49c.647-1.641 1.647-2.974 3-4 3.874-1.27 7.54-3.104 11-5.5 11.003.543 22.003.376 33-.5 1.021-1.688 2.355-3.021 4-4z"/><path style="opacity:.004" fill="#0f0" d="M43.5 794.5c1.333.667 1.333.667 0 0zm716 0c1.333.667 1.333.667 0 0zm6 1c1.333.667 1.333.667 0 0z"/><path style="opacity:1" fill="#84bd73" d="M44.5 787.5c13.12 8.721 27.453 11.387 43 8-1.353 1.026-2.353 2.359-3 4h-29c-1.085-2.087-2.751-3.42-5-4-.086-.996.248-1.829 1-2.5-3.756-.217-6.09-2.05-7-5.5z"/></svg>